PathFileType	4	(X/Y/Z)	12_1_29_p1_0-249_filt_butterworth.trc
DataRate	CameraRate	NumFrames	NumMarkers	Units	OrigDataRate	OrigDataStartFrame	OrigNumFrames
57.0	57.0	5	27	m	57.0	124	249
Frame#	Time	RHip			RKnee			RAnkle			RBigToe			RSmallToe			RHeel			LHip			LKnee			LAnkle			LBigToe			LSmallToe			LHeel			Neck			Head			Nose			RShoulder			RElbow			RWrist			RThumb			RIndex			RPinky			LShoulder			LElbow			LWrist			LThumb			LIndex			LPinky			
		X1	Y1	Z1	X2	Y2	Z2	X3	Y3	Z3	X4	Y4	Z4	X5	Y5	Z5	X6	Y6	Z6	X7	Y7	Z7	X8	Y8	Z8	X9	Y9	Z9	X10	Y10	Z10	X11	Y11	Z11	X12	Y12	Z12	X13	Y13	Z13	X14	Y14	Z14	X15	Y15	Z15	X16	Y16	Z16	X17	Y17	Z17	X18	Y18	Z18	X19	Y19	Z19	X20	Y20	Z20	X21	Y21	Z21	X22	Y22	Z22	X23	Y23	Z23	X24	Y24	Z24	X25	Y25	Z25	X26	Y26	Z26	X27	Y27	Z27	
124	2.175438596491228	0.4457943260645355	0.48239723614989094	1.0428308601068534	0.4821350741167012	0.5583874437617836	1.5133583757250324	0.5014570037005501	0.5950900547849105	1.9299676299836679	0.47383863440646834	0.37831726837198815	1.9312753620720475	0.5305353837787806	0.3924786764930799	1.9073291694962884	0.4783263823452107	0.6483673758361921	2.011167530127249	0.21837465656324456	0.5350645661468395	1.091434186722934	0.2683671162139397	0.5475373443318357	1.532370048417627	0.33011621481579795	0.600606018354088	1.9594306863284934	0.33268827394941125	0.38186383707468574	1.94710323543881	0.2599591589319375	0.43170089591841526	1.950469723739918	0.34439547992016284	0.646702176183375	2.018753585968641	0.25261766079106235	0.5432116992553176	0.4261326120485933	0.23855193121937168	0.4890305096434708	0.17280097180947884	0.24983998392966275	0.4448284286154037	0.29807292918185146	0.44620110495925686	0.5638896369419809	0.5319628902816691	0.5068731178275186	0.5160889807913537	0.8029133436777337	0.5398928413798554	0.4224465482012851	1.0531119929843553	0.49238120687659825	0.421773052229432	1.20508428351541	0.5139080005241761	0.40830634425356993	1.2053508138428337	0.5638971057305338	0.40188397708494034	1.1946938838217105	0.1006370664796975	0.5699355473154845	0.547660340996322	0.07374700856178631	0.5434651431949147	0.8449270904369917	0.1188498455818712	0.4678277180134579	1.1136120299978436	0.17996839998581926	0.45797892857526384	1.2041887323221716	0.15976065224666086	0.43028067050302077	1.2102306926202997	0.10387613387086246	0.4874949898483044	1.233418408463007
125	2.192982456140351	0.4458972281132608	0.48240680402931274	1.0428788070264132	0.4821476453157129	0.5582641658300556	1.5132923352179326	0.5014415510021755	0.5951065306360634	1.929825251639421	0.47382986702783253	0.37832281047345423	1.931281657369461	0.5295229495338213	0.3897103325319461	1.9055458365203783	0.47826935722483793	0.6482213443898937	2.011024030007908	0.21969496873724662	0.5312932884924947	1.089900767530147	0.2686291892003471	0.5475100164158043	1.5314649952110395	0.33054021597681166	0.6010264962983894	1.9595609079219896	0.3326679123482744	0.38191844668826935	1.9471084617528285	0.260039978313404	0.43134266925873505	1.9503961258496971	0.34425105577818604	0.6470183155248321	2.019664327962083	0.2525566093572589	0.5432710931218366	0.4251352202121581	0.23856350873788462	0.48901904473706365	0.17279661947670327	0.24984833505329898	0.44484390048981676	0.29807059522258533	0.4471738919723724	0.564432848718291	0.5319354151473217	0.5068811010194151	0.5159420199118522	0.8028913709320239	0.539855849789944	0.4224200717449786	1.053087613652621	0.49238482388922605	0.4217974901861316	1.205082198448252	0.5139092908363755	0.40826233181525196	1.2053412194931652	0.5663947970538308	0.40101805057134887	1.1939027282502077	0.10062270545616647	0.5699950916484621	0.5476490436857706	0.07378339388889649	0.5431818531898803	0.8454053263001868	0.11885124359701364	0.4677961816656945	1.1135753759000866	0.1799096375311993	0.4576530761235421	1.2040613352105982	0.159666431884171	0.43029678928857285	1.2102113886541352	0.1038926261066641	0.4875609940212225	1.2333216309359882
126	2.210526315789474	0.4459622726350624	0.4825384355636082	1.0428205521228162	0.4824660201686818	0.556786576961824	1.5124912229256147	0.5014368713091182	0.5950774759276475	1.9297287349210295	0.4738251432739344	0.3783403333961903	1.9312934519210494	0.5291717406591934	0.38870570930114995	1.9049039633976619	0.47814705947616276	0.6481156249600867	2.0108368328775277	0.2201473156581631	0.5300051268071122	1.089385102240027	0.26891694574341246	0.5474794014099293	1.5310613455790199	0.33088415681882166	0.6014571062937378	1.9601556197411685	0.3326515958751836	0.3820178599502212	1.9471316246821946	0.26007412789401746	0.4312412158248278	1.9503987720495577	0.34411219417810796	0.6477948076782503	2.0198123972614654	0.25253665324154634	0.5432622447026416	0.4248739677183552	0.23857766124223012	0.48900239752877406	0.17279343331794914	0.24985944296724297	0.4448317840707784	0.2980884566539242	0.4485054406060923	0.5646706982271497	0.5318883425262981	0.5068890775960398	0.5155335521183759	0.8027819918754441	0.5397788904705648	0.4222766494410541	1.053050340361559	0.492396964545034	0.421808568581457	1.2050605043227978	0.5139157027409614	0.4081763549167773	1.2052878956263722	0.568282816821563	0.400400824093915	1.1933091978803736	0.10060253125478048	0.5700899555255661	0.5476181773527188	0.07378252333333153	0.5430692932696665	0.845394535452877	0.11885505911313617	0.4677812500568433	1.113532264788967	0.17989812289772047	0.4575309689210542	1.2040171024976916	0.15964923198318512	0.4303189832515529	1.210198810676008	0.10390943475250236	0.48759103037982854	1.2333125461417316
127	2.2280701754385963	0.4459969702450977	0.48269176131542	1.0428162150072182	0.48333571213177895	0.55285063765149	1.5103198995866962	0.5014416514070161	0.5950240877446027	1.9296990492383528	0.47382748715914214	0.37836947280643546	1.9313037799198447	0.5292138161833004	0.38877288513457364	1.9049463923084682	0.47803819343324816	0.6481080277106549	2.0108023976577103	0.22009737144946814	0.5301663670360486	1.0895045456912413	0.2690577274677178	0.5474162567104407	1.5310802553329856	0.33078035622487234	0.6018528958327353	1.961128543366902	0.33262851692460144	0.3820927792115108	1.9471326405358513	0.26006635149882246	0.43129750926227495	1.9504022472715596	0.3441501439987246	0.6488377295302438	2.0191040309561723	0.25250690207003124	0.5431177145726396	0.4249364767363376	0.23858913797875508	0.4889889450865748	0.17279074197765715	0.2498750805052546	0.44480865929312696	0.29811122210069535	0.44949637184580904	0.5647272236790872	0.5318566459090035	0.5068920739137966	0.5153291646162164	0.8027105885445405	0.5396598860490947	0.42204583497816944	1.0529393446103783	0.4924157627729841	0.42180947981727895	1.205032432050702	0.5139230476449551	0.40808802481356016	1.205213027998732	0.5690068267947235	0.4003036940768895	1.1931068689722957	0.10058579061937906	0.5701430365267544	0.5476008340499413	0.07376570232165777	0.5430550221713896	0.8452319462548993	0.11886148087932892	0.46779038232285847	1.1135010763743787	0.1801505595810893	0.458567961458518	1.204385873767436	0.1599952716065948	0.43052089645118113	1.2102047639425768	0.10389642308847875	0.4875648461095948	1.23372698905627
128	2.245614035087719	0.44600734932291014	0.4828038946634011	1.0428513363951744	0.4845008372787826	0.5475730992336768	1.5073933132993902	0.5014563452147841	0.5949752197886768	1.9297368089657523	0.4738351742013816	0.37840081075765697	1.9313057167227667	0.5293013639274733	0.3890270700381782	1.9050990155783456	0.4781576390675665	0.6484429015273819	2.011379789244391	0.21996940317378946	0.5305393557537642	1.089769074427861	0.26907476289032917	0.5473363265552303	1.5311999573741415	0.32992337492864915	0.6019536759060764	1.961675428112399	0.3325977155209635	0.38212687592318517	1.9470980710686228	0.26004579831701446	0.43135674452036676	1.9503913007503466	0.34430494000285145	0.6496268251851801	2.01825304409594	0.2524634060466993	0.5428310154265976	0.425002278680413	0.23859584152123214	0.48898605224722935	0.17278807978614938	0.24989276564730342	0.44479437840611125	0.298132284567106	0.4498498605646754	0.5647068616019938	0.5318418852160326	0.5068884286370794	0.5153333765733424	0.8026731352366775	0.5396219494044456	0.4220627096884173	1.052760678350504	0.4924121692810524	0.4217706431525062	1.2049982763466414	0.5139277853532518	0.4080482889264208	1.205160902748095	0.5689817559118652	0.4005308060869974	1.1931554220172784	0.10059127663950149	0.5700890599518738	0.5476384549896567	0.07374641689852796	0.5430872724765273	0.8450977304794324	0.11886910599649173	0.46779299407235114	1.1134891030699035	0.18085161740041195	0.4615551648301369	1.2054560703485853	0.16095548328625475	0.4310952453883302	1.2102622935481968	0.10381774044234048	0.48750664162461826	1.2348030473341187
